<svg width="102" height="24" viewBox="0 0 102 24" fill="none" xmlns="http://www.w3.org/2000/svg">
    <g clip-path="url(#clip0_203_165)">
        <path d="M102 19.8639C99.4621 22.3202 95.7719 23.6448 92.3 23.6448C87.1682 23.6448 82.5187 20.62 82.5187 14.3219C82.5187 9.09457 85.7318 5.6283 90.3864 5.6283C94.5283 5.6283 96.8429 8.39928 96.8429 11.3631C96.8429 15.1136 93.1476 17.0015 89.4575 17.0015C89.2595 17.0015 89.092 17.0015 88.8941 16.9711C89.8229 18.2297 91.3457 18.7372 93.0106 18.7372C95.4369 18.7372 98.2235 17.6359 99.7209 16.2149L102.005 19.8689L102 19.8639ZM88.021 13.7535C88.1885 13.7839 88.3306 13.7839 88.4981 13.7839C90.163 13.7839 91.6553 13.1242 91.6553 11.9265C91.6553 11.1703 91.0361 10.6019 90.1884 10.6019C89.1428 10.6019 88.0718 11.4849 88.0159 13.7535H88.021Z" fill="#1A191D"/>
        <path d="M58.5757 20.1633C57.1393 22.6196 54.4034 23.9747 51.5862 23.9747C48.3428 23.9747 45.216 22.2085 45.216 17.5801V10.8708H43.6628V6.36417H45.216V1.2688H50.5711V6.36417H53.1953V10.8708H50.5711V16.6361C50.5711 18.3667 51.6421 19.062 52.7994 19.062C53.9567 19.062 55.0835 18.3667 55.8449 17.1385L58.5808 20.1633H58.5757Z" fill="#1A191D"/>
        <path d="M73.0471 13.1394V23.2997H68.7022L67.1692 20.8941L66.8901 20.5236C66.4738 21.0514 65.8292 21.7721 64.9358 22.3861C64.3978 22.7566 60.7635 25.2637 57.9616 22.7566C57.7535 22.5688 55.6926 20.6606 55.7282 17.5445C55.7586 15.1034 57.0479 13.5098 57.4032 13.0785C58.6316 11.561 60.0325 11.292 60.4741 11.2159C62.271 10.9063 63.6567 11.8401 64.9358 12.7029C65.7835 13.2764 67.0322 14.2914 68.2809 16.0525L68.6971 16.8086C68.6362 16.697 68.6971 16.4026 68.6971 16.2808C68.6971 15.9408 68.6818 15.6008 68.692 15.2557C68.7072 14.5452 68.7428 13.8347 68.626 13.1292C68.5245 12.5253 68.3113 11.9416 68.0068 11.4088C67.753 10.9622 67.4281 10.5511 67.0373 10.2111C66.55 9.78982 65.9612 9.49039 65.347 9.29754C64.2201 8.93721 63.0019 9.04379 61.8345 9.10469C60.667 9.16559 59.4183 9.36351 58.2915 9.82535L57.388 5.52676C64.7379 3.46628 70.631 5.59274 72.4583 10.0994C72.7375 10.7896 72.9507 11.6422 73.0167 12.7029L73.037 13.1394H73.0471Z" fill="#1A191D"/>
        <path d="M62.6568 16.0525C62.1949 15.7226 61.6568 15.7074 61.2609 16.0525C60.6417 16.5955 60.5554 17.8795 60.9817 18.656C61.0071 18.7067 61.0376 18.7524 61.068 18.793C61.4436 19.3411 62.0731 19.4223 62.5553 19.0518L64.4689 17.5953L62.6517 16.0474L62.6568 16.0525Z" fill="#F7F0E6"/>
        <path d="M26.3033 9.69334C25.9073 9.69334 25.7551 9.89126 25.7551 10.3379V18.0164C25.7551 21.3964 23.9379 23.6346 20.334 23.6346C18.395 23.6346 16.852 22.8378 16.0094 21.7974C15.1617 22.8428 13.6237 23.6346 11.6847 23.6346C8.08082 23.6346 6.26365 21.3964 6.26365 18.0164V11.2818C6.26365 10.5459 5.95402 9.88619 5.32968 9.91664C4.83225 9.93694 4.47693 10.4394 4.53277 10.9317C4.59876 11.5305 4.94899 12.0989 5.46673 12.4998L2.08619 15.0577C0.796915 14.0427 0 12.3273 0 10.6119C0 7.37911 2.63439 5.44043 5.49211 5.44043C9.44623 5.44043 11.035 7.92721 11.035 11.6777V17.6663C11.035 18.6864 11.4055 19.2548 12.3547 19.2548C13.3039 19.2548 13.6237 18.6813 13.6237 17.6663V5.71448H18.395V17.6713C18.395 18.6914 18.7656 19.2598 19.7148 19.2598C20.6639 19.2598 20.9837 18.6864 20.9837 17.6713V9.66796C20.9837 6.75995 22.1004 5.44043 24.8363 5.44043C25.8312 5.44043 30.2878 8.13022 30.8563 8.52607C30.8563 9.79991 29.6229 9.73394 29.6229 11.0078C30.0848 11.2159 26.9225 9.68826 26.2982 9.68826L26.3033 9.69334Z" fill="#1A191D"/>
        <path d="M33.9222 9.51068C34.2572 9.10975 35.3231 8.07951 36.2215 7.81053C36.7596 7.64813 37.6022 7.39945 38.196 7.97801C38.6173 8.38909 38.8914 9.19602 38.6681 9.74921C38.2265 10.8403 35.9525 10.749 35.0033 10.4496C32.308 9.59188 27.7296 6.44026 25.2068 5.5166L27.6179 9.86086C27.5976 10.003 26.1865 9.60711 26.2931 9.68831C27.3184 10.4394 28.6077 11.1855 29.7142 11.8097C31.1101 12.5963 32.506 13.1901 33.9881 13.7991C35.587 14.4538 37.4397 14.7431 39.1046 14.1341C41.272 13.3424 42.805 10.7338 42.6222 8.40939C42.5106 7.00867 41.7035 5.66378 40.6934 4.71474C38.9321 3.05519 36.1352 3.27342 34.0947 4.23261C33.1608 4.67414 32.3029 5.27807 31.5466 5.97843C31.4654 6.05456 30.2675 7.32332 30.3081 7.3487L33.9222 9.52083V9.51068Z" fill="#1A191D"/>
        <path d="M44.4597 18.9605C44.3531 19.2904 42.7694 22.0817 39.1808 23.0358C36.4093 23.7717 34.1303 22.3608 33.4856 21.9599C31.171 20.5236 30.2269 18.2957 29.7701 16.9305C29.0239 14.7127 28.9985 13.0074 28.8767 12.17L32.8156 13.9565C33.1405 14.4081 33.6633 15.7784 34.4145 16.9914C35.0236 17.9708 35.9119 18.4428 36.4296 18.6306C37.6326 19.0671 39.4346 18.7727 40.5563 17.6054C41.0639 17.0776 44.4039 14.0529 44.4445 13.7078L44.4648 18.9656L44.4597 18.9605Z" fill="#1A191D"/>
        <path d="M86.4525 20.1886C84.8435 22.645 82.1939 24 79.6864 24C76.8083 24 74.3567 22.2339 74.3567 18.5798V0H79.7117V17.169C79.7117 18.3667 80.2752 18.996 81.0924 18.996C81.9096 18.996 82.8385 18.3971 83.7166 17.1994L86.4525 20.1937V20.1886Z" fill="#1A191D"/>
    </g>
    <defs>
        <clipPath id="clip0_203_165">
            <rect width="102" height="24" fill="white"/>
        </clipPath>
    </defs>
</svg>